<svg width="18" height="18" viewBox="0 0 18 18" fill="none" xmlns="http://www.w3.org/2000/svg">
  <g clip-path="url(#clip0_4768_3179)">
  <path fill-rule="evenodd" clip-rule="evenodd" d="M10.4016 0.0836371C7.10006 -0.373288 3.74198 1.08193 1.81782 3.80337C-0.106347 6.52482 -0.35863 10.1759 1.17294 13.1361C2.70437 16.0961 5.82995 17.9993 9.16256 18.0011C9.97882 18.0033 10.7914 17.8913 11.5766 17.6683C12.5728 17.3884 12.996 16.5087 12.9735 15.7222C12.9518 14.9622 12.5157 14.1219 11.6382 13.7958C11.6286 13.7922 11.619 13.7889 11.6092 13.7857C10.821 13.5266 10.3168 12.6978 10.4491 11.8787C10.5814 11.0596 11.3209 10.4318 12.1507 10.4341H12.1529H14.5112V9.63048L14.509 10.4341H14.5102C15.5803 10.4366 16.6147 9.90317 17.233 9.02973C17.8514 8.15607 18.0107 7.00283 17.6522 5.99425C16.5393 2.85282 13.7029 0.540533 10.4016 0.0836371ZM11.5766 17.6683L11.5751 17.6687L11.3583 16.8949L11.578 17.6679L11.5766 17.6683ZM3.13008 4.73119C4.70757 2.50007 7.47455 1.30101 10.1812 1.6756C12.8879 2.05021 15.2252 3.9557 16.1374 6.53141L16.1378 6.53234C16.3211 7.04819 16.2376 7.65433 15.9211 8.10119C15.6049 8.54805 15.061 8.82844 14.5135 8.82693L14.5112 8.82691H12.1529V9.63048L12.1551 8.82693L12.1539 8.82691C10.5343 8.82303 9.12081 10.0235 8.86253 11.6225C8.60529 13.2149 9.56004 14.7929 11.0875 15.3059C11.232 15.3645 11.3604 15.5353 11.367 15.7681C11.3701 15.8765 11.3428 15.9583 11.3099 16.0088C11.283 16.0502 11.2388 16.0939 11.1415 16.1212L11.1386 16.1219C10.4971 16.3043 9.83309 16.3959 9.16611 16.394H9.16423C6.43176 16.3928 3.85598 14.8245 2.60035 12.3976C1.34472 9.97076 1.5526 6.96233 3.13008 4.73119ZM5.78572 10.9286C5.07565 10.9286 4.50001 11.5042 4.50001 12.2143C4.50001 12.9244 5.07565 13.5 5.78572 13.5C6.49581 13.5 7.07144 12.9244 7.07144 12.2143C7.07144 11.5042 6.49581 10.9286 5.78572 10.9286ZM9.00001 5.14285C9.00001 4.07774 9.86346 3.21428 10.9286 3.21428C11.9937 3.21428 12.8572 4.07774 12.8572 5.14285C12.8572 6.20798 11.9937 7.07142 10.9286 7.07142C9.86346 7.07142 9.00001 6.20798 9.00001 5.14285ZM5.78572 5.14285C4.7206 5.14285 3.85715 6.00631 3.85715 7.07142C3.85715 8.13655 4.7206 9 5.78572 9C6.85085 9 7.71429 8.13655 7.71429 7.07142C7.71429 6.00631 6.85085 5.14285 5.78572 5.14285Z" fill="black"/>
  </g>
  <defs>
  <clipPath id="clip0_4768_3179">
  <rect width="18" height="18" fill="white"/>
  </clipPath>
  </defs>
  </svg>
