<svg width="18" height="18" viewBox="0 0 18 18" fill="none" xmlns="http://www.w3.org/2000/svg">
  <path d="M6.5381 15.4493L1 17L2.55067 11.4619L12.6915 1.37028C12.8061 1.25307 12.9431 1.15993 13.0941 1.09634C13.2452 1.03275 13.4076 1 13.5715 1C13.7354 1 13.8977 1.03275 14.0489 1.09634C14.1999 1.15993 14.3368 1.25307 14.4514 1.37028L16.6297 3.56091C16.7451 3.67531 16.8366 3.81144 16.8991 3.9614C16.9617 4.11137 16.9938 4.27223 16.9938 4.4347C16.9938 4.59716 16.9617 4.75802 16.8991 4.90799C16.8366 5.05797 16.7451 5.19408 16.6297 5.30848L6.5381 15.4493Z" stroke="black" stroke-width="1.8" stroke-linecap="round" stroke-linejoin="round"/>
  </svg>
