<svg width="24" height="24" viewBox="0 0 24 24" fill="none" xmlns="http://www.w3.org/2000/svg">
  <path d="M20 11.9262C20.0012 11.7553 19.9668 11.5861 19.899 11.4293C19.8311 11.2725 19.7314 11.1315 19.6062 11.0154L12 4L4.39387 11.0154C4.26861 11.1315 4.16891 11.2725 4.1011 11.4293C4.03329 11.5861 3.99887 11.7553 4.00003 11.9262V18.7692C4.00003 19.0956 4.1297 19.4087 4.36051 19.6395C4.59133 19.8703 4.90438 20 5.23079 20H18.7692C19.0956 20 19.4087 19.8703 19.6395 19.6395C19.8704 19.4087 20 19.0956 20 18.7692V11.9262Z" stroke="black" stroke-width="1.8" stroke-linecap="round" stroke-linejoin="round"/>
  <path d="M12 20V15.0769" stroke="black" stroke-width="1.8" stroke-linecap="round" stroke-linejoin="round"/>
  </svg>
  