<svg width="18" height="16" viewBox="0 0 18 16" fill="none" xmlns="http://www.w3.org/2000/svg">
  <path d="M14.5385 13.3077C14.5385 13.6341 14.4087 13.9472 14.178 14.178C13.9472 14.4087 13.6341 14.5385 13.3077 14.5385H2.23077C1.90434 14.5385 1.5913 14.4087 1.36048 14.178C1.12967 13.9472 1 13.6341 1 13.3077V2.23077C1 1.90434 1.12967 1.5913 1.36048 1.36048C1.5913 1.12967 1.90434 1 2.23077 1H13.3077C13.6341 1 13.9472 1.12967 14.178 1.36048C14.4087 1.5913 14.5385 1.90434 14.5385 2.23077" stroke="black" stroke-width="1.8" stroke-linecap="round" stroke-linejoin="round"/>
  <path d="M7.76923 7.76923H17" stroke="black" stroke-width="1.8" stroke-linecap="round" stroke-linejoin="round"/>
  <path d="M14.5385 5.30769L17 7.76923L14.5385 10.2308" stroke="black" stroke-width="1.8" stroke-linecap="round" stroke-linejoin="round"/>
  </svg>
