<svg width="48" height="48" viewBox="0 0 48 48" fill="none" xmlns="http://www.w3.org/2000/svg">
  <g filter="url(#filter0_d_316_3079)">
  <mask id="path-1-inside-1_316_3079" fill="white">
  <path d="M5 16C5 10.4772 9.47715 6 15 6H35C40.5228 6 45 10.4772 45 16V46H5V16Z"/>
  </mask>
  <path d="M5 16C5 10.4772 9.47715 6 15 6H35C40.5228 6 45 10.4772 45 16V46H5V16Z" fill="#785CFF"/>
  <path d="M4 16C4 9.92487 8.92487 5 15 5H35C41.0751 5 46 9.92487 46 16H44C44 11.0294 39.9706 7 35 7H15C10.0294 7 6 11.0294 6 16H4ZM45 46H5H45ZM4 46V16C4 9.92487 8.92487 5 15 5V7C10.0294 7 6 11.0294 6 16V46H4ZM35 5C41.0751 5 46 9.92487 46 16V46H44V16C44 11.0294 39.9706 7 35 7V5Z" fill="black" mask="url(#path-1-inside-1_316_3079)"/>
  </g>
  <path d="M30.7611 16.6054C30.7611 19.5772 28.3189 21.9973 25.2926 21.9973C22.2664 21.9973 19.8242 19.5772 19.8242 16.6054C19.8242 13.6336 22.2664 11.2135 25.2926 11.2135C28.3189 11.2135 30.7611 13.6336 30.7611 16.6054Z" fill="white" stroke="black"/>
  <rect x="12.6621" y="26.1397" width="25.2611" height="4.49912" rx="2.24956" fill="white" stroke="black"/>
  <rect x="12.6621" y="34.7812" width="25.2611" height="4.49912" rx="2.24956" fill="white" stroke="black"/>
  <defs>
  <filter id="filter0_d_316_3079" x="0" y="0" width="48" height="48" filterUnits="userSpaceOnUse" color-interpolation-filters="sRGB">
  <feFlood flood-opacity="0" result="BackgroundImageFix"/>
  <feColorMatrix in="SourceAlpha" type="matrix" values="0 0 0 0 0 0 0 0 0 0 0 0 0 0 0 0 0 0 127 0" result="hardAlpha"/>
  <feOffset dx="-1" dy="-2"/>
  <feGaussianBlur stdDeviation="2"/>
  <feComposite in2="hardAlpha" operator="out"/>
  <feColorMatrix type="matrix" values="0 0 0 0 0 0 0 0 0 0 0 0 0 0 0 0 0 0 0.15 0"/>
  <feBlend mode="normal" in2="BackgroundImageFix" result="effect1_dropShadow_316_3079"/>
  <feBlend mode="normal" in="SourceGraphic" in2="effect1_dropShadow_316_3079" result="shape"/>
  </filter>
  </defs>
  </svg>
