<svg width="48" height="48" viewBox="0 0 48 48" fill="none" xmlns="http://www.w3.org/2000/svg">
  <g filter="url(#filter0_d_315_3043)">
  <path d="M5 16C5 10.4772 9.47715 6 15 6H35C40.5228 6 45 10.4772 45 16V46H5V16Z" fill="white"/>
  </g>
  <mask id="path-2-inside-1_315_3043" fill="white">
  <path d="M5 16C5 10.4772 9.47715 6 15 6H35C40.5228 6 45 10.4772 45 16V46H5V16Z"/>
  </mask>
  <path d="M5 16C5 10.4772 9.47715 6 15 6H35C40.5228 6 45 10.4772 45 16V46H5V16Z" fill="url(#paint0_linear_315_3043)"/>
  <path d="M4 16C4 9.92487 8.92487 5 15 5H35C41.0751 5 46 9.92487 46 16H44C44 11.0294 39.9706 7 35 7H15C10.0294 7 6 11.0294 6 16H4ZM45 46H5H45ZM4 46V16C4 9.92487 8.92487 5 15 5V7C10.0294 7 6 11.0294 6 16V46H4ZM35 5C41.0751 5 46 9.92487 46 16V46H44V16C44 11.0294 39.9706 7 35 7V5Z" fill="black" mask="url(#path-2-inside-1_315_3043)"/>
  <path d="M33.0714 22.6667C33.0714 27.0576 29.4638 30.6282 25 30.6282C20.5362 30.6282 16.9286 27.0576 16.9286 22.6667C16.9286 18.2757 20.5362 14.7051 25 14.7051C29.4638 14.7051 33.0714 18.2757 33.0714 22.6667Z" fill="#785CFF" stroke="black"/>
  <rect x="11.7338" y="35.7308" width="26.5325" height="2.07692" rx="1.03846" fill="#785CFF" stroke="black"/>
  <defs>
  <filter id="filter0_d_315_3043" x="0" y="0" width="48" height="48" filterUnits="userSpaceOnUse" color-interpolation-filters="sRGB">
  <feFlood flood-opacity="0" result="BackgroundImageFix"/>
  <feColorMatrix in="SourceAlpha" type="matrix" values="0 0 0 0 0 0 0 0 0 0 0 0 0 0 0 0 0 0 127 0" result="hardAlpha"/>
  <feOffset dx="-1" dy="-2"/>
  <feGaussianBlur stdDeviation="2"/>
  <feComposite in2="hardAlpha" operator="out"/>
  <feColorMatrix type="matrix" values="0 0 0 0 0 0 0 0 0 0 0 0 0 0 0 0 0 0 0.15 0"/>
  <feBlend mode="normal" in2="BackgroundImageFix" result="effect1_dropShadow_315_3043"/>
  <feBlend mode="normal" in="SourceGraphic" in2="effect1_dropShadow_315_3043" result="shape"/>
  </filter>
  <linearGradient id="paint0_linear_315_3043" x1="25" y1="29.1749" x2="25" y2="59.42" gradientUnits="userSpaceOnUse">
  <stop stop-color="white"/>
  <stop offset="1" stop-color="#C6E1FD"/>
  </linearGradient>
  </defs>
  </svg>
