
<svg width="57" height="56" viewBox="0 0 57 56" fill="none" xmlns="http://www.w3.org/2000/svg">
<rect x="0.5" width="56" height="56" rx="28" fill="#5134E2"/>
<mask id="mask0_1286_754" style="mask-type:alpha" maskUnits="userSpaceOnUse" x="16" y="16" width="25" height="24">
<rect x="16.5" y="16" width="24" height="24" fill="#D9D9D9"/>
</mask>
<g mask="url(#mask0_1286_754)">
<path d="M20.5 36C19.95 36 19.4792 35.8042 19.0875 35.4125C18.6958 35.0208 18.5 34.55 18.5 34V22C18.5 21.45 18.6958 20.9792 19.0875 20.5875C19.4792 20.1958 19.95 20 20.5 20H36.5C37.05 20 37.5208 20.1958 37.9125 20.5875C38.3042 20.9792 38.5 21.45 38.5 22V34C38.5 34.55 38.3042 35.0208 37.9125 35.4125C37.5208 35.8042 37.05 36 36.5 36H20.5ZM28.5 29L20.5 24V34H36.5V24L28.5 29ZM28.5 27L36.5 22H20.5L28.5 27ZM20.5 24V22V34V24Z" fill="white"/>
</g>
</svg>
