<svg width="57" height="56" viewBox="0 0 57 56" fill="none" xmlns="http://www.w3.org/2000/svg">
<circle cx="28.5" cy="28" r="28" fill="#2DB46F"/>
<g clip-path="url(#clip0_1286_616)">
<path d="M33.3177 40.6252L33.0423 40.7319C31.379 41.3759 29.6327 41.7019 27.8513 41.7019C24.0178 41.7019 20.4137 40.2094 17.7035 37.4984C14.9925 34.7882 13.5 31.1848 13.5 27.3513C13.5 23.5178 14.9925 19.9137 17.7035 17.2035C20.4137 14.4925 24.0178 13 27.8513 13C31.6848 13 35.2888 14.4925 37.9991 17.2035C40.7101 19.9137 42.2026 23.5178 42.2026 27.3513C42.2026 29.1327 41.8759 30.879 41.2325 32.5423L41.1259 32.8177L43.5007 43.0007L33.3177 40.6259V40.6252Z" fill="white"/>
<path d="M37.0952 32.3857C37.9114 30.8905 38.3758 29.1752 38.3758 27.3513C38.3758 21.5392 33.664 16.8268 27.8513 16.8268C22.0385 16.8268 17.3268 21.5385 17.3268 27.3513C17.3268 33.164 22.0385 37.8758 27.8513 37.8758C29.6752 37.8758 31.3905 37.412 32.8857 36.5952L39.0832 38.5832L37.0952 32.3857Z" fill="url(#paint0_linear_1286_616)"/>
<path d="M23.955 20.927C24.1993 20.8115 24.6617 20.7083 24.8163 20.8628C24.8676 20.9141 26.487 23.6642 26.5255 23.7803C26.564 23.8701 26.5896 23.9734 26.5896 24.0504C26.5896 24.1786 26.4999 24.346 26.3196 24.5256C26.1529 24.7186 25.33 25.3093 25.1505 25.4895C24.9702 25.6434 24.8805 25.8109 24.8805 25.9135C24.8805 25.9648 24.8933 26.0289 24.9318 26.1193C24.9702 26.2091 25.4326 27.0833 27.0392 28.9208C28.6586 30.771 29.7124 31.0026 30.008 31.0154C30.1106 31.0154 30.2524 30.9256 30.432 30.7454C30.6122 30.5651 30.7789 30.3728 30.9328 30.1669C31.0739 29.9482 31.267 29.7558 31.4472 29.5755C31.6274 29.3953 31.7942 29.3055 31.9224 29.3055C32.0122 29.2927 32.1027 29.3312 32.1925 29.3697C32.2822 29.4081 35.0452 31.0917 35.0971 31.143C35.2254 31.2712 35.1741 31.76 35.033 32.0043C33.9536 34.0092 32.5016 34.1759 31.9231 34.1374C31.3318 34.1118 28.2091 33.7392 25.2915 30.6678C21.6801 26.8511 21.8219 24.2164 21.8219 24.0362C21.8347 23.4577 22.1432 21.6844 23.955 20.9263" fill="white"/>
</g>
<defs>
<linearGradient id="paint0_linear_1286_616" x1="22.588" y1="18.2356" x2="35.5231" y2="40.6387" gradientUnits="userSpaceOnUse">
<stop offset="0.26" stop-color="#3AAA35"/>
<stop offset="1" stop-color="#008D36"/>
</linearGradient>
<clipPath id="clip0_1286_616">
<rect width="30" height="30" fill="white" transform="translate(13.5 13)"/>
</clipPath>
</defs>
</svg>
